<?xml version="1.0" encoding="utf-8"?>
<!-- Generator: Adobe Illustrator 16.0.0, SVG Export Plug-In . SVG Version: 6.00 Build 0)  -->
<!DOCTYPE svg PUBLIC "-//W3C//DTD SVG 1.1//EN" "http://www.w3.org/Graphics/SVG/1.1/DTD/svg11.dtd">
<svg version="1.1" id="图层_1" xmlns="http://www.w3.org/2000/svg" xmlns:xlink="http://www.w3.org/1999/xlink" x="0px" y="0px"
	 width="300px" height="300px" viewBox="0 0 300 300" enable-background="new 0 0 300 300" xml:space="preserve">
<g>
	<path fill="#FFFFFF" d="M195.665,153.473c0.266,0.192,0.276,0.482,0.023,0.643c-0.253,0.161-4.259,2.705-8.902,5.652
		l-74.648,47.392c-4.644,2.947-8.677,5.419-8.791,5.491c-0.113,0.071-0.348,0.062-0.348-0.023c0,0,0,0,0-0.299
		c0-7.05,0-94.257,0-125.316c0-0.261,0-0.261,0-0.261c0-0.189,0.253-0.265,0.389-0.167s3.96,2.821,8.411,6.052l75.255,54.61
		C191.505,150.478,195.399,153.279,195.665,153.473z"/>
</g>
</svg>
