<?xml version="1.0" encoding="utf-8"?>
<!-- Generator: Adobe Illustrator 16.0.0, SVG Export Plug-In . SVG Version: 6.00 Build 0)  -->
<!DOCTYPE svg PUBLIC "-//W3C//DTD SVG 1.1//EN" "http://www.w3.org/Graphics/SVG/1.1/DTD/svg11.dtd">
<svg version="1.1" id="图层_1" xmlns="http://www.w3.org/2000/svg" xmlns:xlink="http://www.w3.org/1999/xlink" x="0px" y="0px"
	 width="300px" height="300px" viewBox="0 0 300 300" enable-background="new 0 0 300 300" xml:space="preserve">
<g>
	<g>
		<path fill="#FFFFFF" d="M174.357,152.043c0.177,0.129,0.184,0.321,0.016,0.428s-4.104,2.606-8.748,5.554l-43.909,27.877
			c-4.644,2.947-8.504,5.398-8.579,5.446S113,191.389,113,191.332c0,0,0,0,0-0.198c0-4.682,0-62.603,0-83.231
			c0-0.174,0-0.174,0-0.174c0-0.125,0.074-0.176,0.164-0.111s3.806,2.761,8.256,5.993l44.524,32.325
			C170.395,149.167,174.181,151.915,174.357,152.043z"/>
	</g>
	<g>
		<g>
			<g>
				<line fill="#FFFFFF" x1="183" y1="108" x2="183" y2="192"/>
			</g>
			<g>
				<path fill="#FFFFFF" d="M187,191c0,0.55-0.45,1-1,1h-6c-0.55,0-1-0.45-1-1v-82c0-0.55,0.45-1,1-1h6c0.55,0,1,0.45,1,1V191z"/>
			</g>
		</g>
	</g>
</g>
</svg>
