<?xml version="1.0" encoding="utf-8"?>
<!DOCTYPE svg PUBLIC "-//W3C//DTD SVG 1.1//EN" "http://www.w3.org/Graphics/SVG/1.1/DTD/svg11.dtd">
<svg version="1.1" id="play-noly" x="0px" y="0px" width="34px" height="34px" viewBox="0 0 300 300">
<g>
	<g>
		<path fill="#FFFFFF" d="M125.643,147.457c-0.177-0.128-0.184-0.32-0.016-0.427s4.104-2.606,8.748-5.554l43.909-27.876
			c4.644-2.948,8.504-5.399,8.579-5.447s0.137-0.041,0.137,0.016c0,0,0,0,0,0.198c0,4.682,0,62.603,0,83.231
			c0,0.174,0,0.174,0,0.174c0,0.126-0.074,0.176-0.164,0.111c-0.09-0.065-3.806-2.762-8.256-5.993l-44.524-32.325
			C129.605,150.333,125.819,147.584,125.643,147.457z"/>
	</g>
	<g>
		<g>
			<g>
				<line fill="#FFFFFF" x1="117" y1="192" x2="117" y2="108"/>
			</g>
			<g>
				<path fill="#FFFFFF" d="M113,109c0-0.55,0.45-1,1-1h6c0.55,0,1,0.45,1,1v82c0,0.55-0.45,1-1,1h-6c-0.55,0-1-0.45-1-1V109z"/>
			</g>
		</g>
	</g>
</g>
</svg>

