<?xml version="1.0" encoding="utf-8"?>
<!-- Generator: Adobe Illustrator 16.0.0, SVG Export Plug-In . SVG Version: 6.00 Build 0)  -->
<!DOCTYPE svg PUBLIC "-//W3C//DTD SVG 1.1//EN" "http://www.w3.org/Graphics/SVG/1.1/DTD/svg11.dtd">
<svg version="1.1" id="图层_1" xmlns="http://www.w3.org/2000/svg" xmlns:xlink="http://www.w3.org/1999/xlink" x="0px" y="0px"
	 width="300px" height="300px" viewBox="0 0 300 300" enable-background="new 0 0 300 300" xml:space="preserve">
<g>
	<g>
		<g>
			<g>
				<line fill="#FFFFFF" x1="118" y1="84" x2="118" y2="217"/>
			</g>
			<g>
				<path fill="#FFFFFF" d="M125,214c0,1.65-1.35,3-3,3h-7c-1.65,0-3-1.35-3-3V87c0-1.65,1.35-3,3-3h7c1.65,0,3,1.35,3,3V214z"/>
			</g>
		</g>
	</g>
	<g>
		<g>
			<g>
				<line fill="#FFFFFF" x1="181" y1="84" x2="181" y2="217"/>
			</g>
			<g>
				<path fill="#FFFFFF" d="M188,214c0,1.65-1.35,3-3,3h-7c-1.65,0-3-1.35-3-3V87c0-1.65,1.35-3,3-3h7c1.65,0,3,1.35,3,3V214z"/>
			</g>
		</g>
	</g>
</g>
</svg>
