<?xml version="1.0" encoding="utf-8"?>
<!-- Generator: Adobe Illustrator 16.0.0, SVG Export Plug-In . SVG Version: 6.00 Build 0)  -->
<!DOCTYPE svg PUBLIC "-//W3C//DTD SVG 1.1//EN" "http://www.w3.org/Graphics/SVG/1.1/DTD/svg11.dtd">
<svg version="1.1" id="图层_1" xmlns="http://www.w3.org/2000/svg" xmlns:xlink="http://www.w3.org/1999/xlink" x="0px" y="0px"
	 width="300px" height="300px" viewBox="0 0 300 300" enable-background="new 0 0 300 300" xml:space="preserve">
<rect x="481" y="-54" fill="#FF0000" width="300" height="300"/>
<g>
	<path fill="#FFFFFF" d="M439.382-270.934c0.266,0.193,0.276,0.483,0.022,0.644c-0.253,0.161-4.259,2.705-8.902,5.652
		l-74.647,47.391c-4.644,2.948-8.535,5.419-8.648,5.491S347-211.694,347-211.779c0,0,0,0,0-0.299c0-7.05,0-94.257,0-125.316
		c0-0.261,0-0.261,0-0.261c0-0.189,0.111-0.265,0.247-0.167s3.889,2.821,8.339,6.052l75.221,54.61
		C435.257-273.929,439.116-271.127,439.382-270.934z"/>
</g>
<g>
	<g>
		<path fill="#FFFFFF" d="M578.357-272.457c0.177,0.128,0.184,0.32,0.016,0.427s-4.104,2.606-8.748,5.554l-43.909,27.876
			c-4.644,2.948-8.504,5.399-8.579,5.447S517-233.111,517-233.168c0,0,0,0,0-0.198c0-4.682,0-62.603,0-83.231
			c0-0.174,0-0.174,0-0.174c0-0.125,0.074-0.176,0.164-0.111s3.806,2.761,8.256,5.993l44.524,32.325
			C574.395-275.333,578.181-272.584,578.357-272.457z"/>
	</g>
	<g>
		<g>
			<g>
				<line fill="#FFFFFF" x1="587" y1="-317" x2="587" y2="-233"/>
			</g>
			<g>
				<path fill="#FFFFFF" d="M591-234c0,0.55-0.45,1-1,1h-6c-0.55,0-1-0.45-1-1v-82c0-0.55,0.45-1,1-1h6c0.55,0,1,0.45,1,1V-234z"/>
			</g>
		</g>
	</g>
</g>
<g>
	<g>
		<g>
			<g>
				<line fill="#FFFFFF" x1="118" y1="83" x2="118" y2="216"/>
			</g>
			<g>
				<path fill="#FFFFFF" d="M125,213c0,1.65-1.35,3-3,3h-7c-1.65,0-3-1.35-3-3V86c0-1.65,1.35-3,3-3h7c1.65,0,3,1.35,3,3V213z"/>
			</g>
		</g>
	</g>
	<g>
		<g>
			<g>
				<line fill="#FFFFFF" x1="181" y1="83" x2="181" y2="216"/>
			</g>
			<g>
				<path fill="#FFFFFF" d="M188,213c0,1.65-1.35,3-3,3h-7c-1.65,0-3-1.35-3-3V86c0-1.65,1.35-3,3-3h7c1.65,0,3,1.35,3,3V213z"/>
			</g>
		</g>
	</g>
</g>
</svg>
