<?xml version="1.0" encoding="utf-8"?>
<!-- Generator: Adobe Illustrator 16.0.0, SVG Export Plug-In . SVG Version: 6.00 Build 0)  -->
<!DOCTYPE svg PUBLIC "-//W3C//DTD SVG 1.1//EN" "http://www.w3.org/Graphics/SVG/1.1/DTD/svg11.dtd">
<svg version="1.1" id="图层_1" xmlns="http://www.w3.org/2000/svg" xmlns:xlink="http://www.w3.org/1999/xlink" x="0px" y="0px"
	 width="300px" height="300px" viewBox="0 0 300 300" enable-background="new 0 0 300 300" xml:space="preserve">
<g>
	<path fill="#FFFFFF" d="M64.506,42.295c6.198-4.982,12.833-9.439,19.842-13.302l-3.849-9.295
		c-8.198,4.438-15.927,9.635-23.1,15.488L64.506,42.295z"/>
	<path fill="#FFFFFF" d="M165.5,12.822c8.043,0.877,15.88,2.449,23.449,4.657l3.848-9.289c-8.787-2.635-17.911-4.48-27.297-5.432
		V12.822z"/>
	<path fill="#FFFFFF" d="M112.05,17.479c7.569-2.208,15.406-3.78,23.45-4.657V2.758c-9.386,0.952-18.51,2.797-27.296,5.432
		L112.05,17.479z"/>
	<path fill="#FFFFFF" d="M29.992,83.349c3.863-7.008,8.321-13.644,13.302-19.842l-7.108-7.109
		c-5.853,7.173-11.049,14.902-15.488,23.1L29.992,83.349z"/>
	<path fill="#FFFFFF" d="M13.821,134.501c0.877-8.043,2.449-15.88,4.657-23.45l-9.288-3.848c-2.635,8.787-4.48,17.911-5.433,27.297
		L13.821,134.501z"/>
	<path fill="#FFFFFF" d="M216.651,28.993c7.009,3.862,13.644,8.32,19.842,13.302l7.108-7.109
		c-7.174-5.853-14.902-11.049-23.1-15.487L216.651,28.993z"/>
	<path fill="#FFFFFF" d="M291.81,107.204l-9.288,3.846c2.208,7.57,3.78,15.406,4.657,23.45l10.063,0
		C296.29,125.114,294.444,115.99,291.81,107.204z"/>
	<path fill="#FFFFFF" d="M257.705,63.507c4.982,6.198,9.439,12.833,13.303,19.842l9.294-3.851
		c-4.438-8.197-9.634-15.926-15.487-23.099L257.705,63.507z"/>
	<path fill="#FFFFFF" d="M271.008,215.651c-3.862,7.009-8.32,13.644-13.302,19.843l7.108,7.107
		c5.853-7.173,11.049-14.901,15.487-23.099L271.008,215.651z"/>
	<path fill="#FFFFFF" d="M236.494,256.706c-6.199,4.981-12.834,9.439-19.843,13.302l3.85,9.295
		c8.198-4.438,15.927-9.635,23.1-15.487L236.494,256.706z"/>
	<path fill="#FFFFFF" d="M188.95,281.521c-7.57,2.208-15.407,3.78-23.451,4.657l0.001,10.063c9.386-0.952,18.51-2.798,27.296-5.432
		L188.95,281.521z"/>
	<path fill="#FFFFFF" d="M287.179,164.5c-0.877,8.043-2.449,15.88-4.657,23.45l9.288,3.847c2.635-8.786,4.48-17.91,5.433-27.296
		L287.179,164.5z"/>
	<path fill="#FFFFFF" d="M84.349,270.009c-7.009-3.863-13.644-8.321-19.842-13.303l-7.108,7.108
		c7.173,5.854,14.902,11.049,23.099,15.487L84.349,270.009z"/>
	<path fill="#FFFFFF" d="M135.501,286.179c-8.044-0.877-15.881-2.449-23.451-4.657l-3.847,9.288
		c8.786,2.635,17.911,4.48,27.296,5.433L135.501,286.179z"/>
	<path fill="#FFFFFF" d="M43.294,235.494c-4.982-6.198-9.44-12.834-13.303-19.843l-9.294,3.85c4.438,8.198,9.635,15.927,15.487,23.1
		L43.294,235.494z"/>
	<path fill="#FFFFFF" d="M18.479,187.95c-2.208-7.569-3.78-15.406-4.657-23.45l-10.064-0.001c0.953,9.386,2.798,18.511,5.433,27.297
		L18.479,187.95z"/>
</g>
</svg>
