<?xml version="1.0" encoding="utf-8"?>
<!-- Generator: Adobe Illustrator 16.0.0, SVG Export Plug-In . SVG Version: 6.00 Build 0)  -->
<!DOCTYPE svg PUBLIC "-//W3C//DTD SVG 1.1//EN" "http://www.w3.org/Graphics/SVG/1.1/DTD/svg11.dtd">
<svg version="1.1" id="图层_1" xmlns="http://www.w3.org/2000/svg" xmlns:xlink="http://www.w3.org/1999/xlink" x="0px" y="0px"
	 width="34px" height="34px" viewBox="0 0 34 34" enable-background="new 0 0 34 34" xml:space="preserve">
<g>
	<path fill="#FFFFFF" d="M12.267,1.401c0.934-0.276,1.901-0.472,2.896-0.576V0.25c-1.071,0.108-2.112,0.319-3.114,0.62L12.267,1.401
		z"/>
	<path fill="#FFFFFF" d="M18.588,0.825c0.994,0.104,1.962,0.3,2.896,0.576l0.219-0.53C20.7,0.57,19.658,0.359,18.588,0.25V0.825z"/>
	<path fill="#FFFFFF" d="M0.699,15.288c0.104-0.995,0.3-1.962,0.576-2.896l-0.53-0.22c-0.301,1.003-0.512,2.044-0.62,3.116H0.699z"
		/>
	<path fill="#FFFFFF" d="M6.653,4.358c0.764-0.618,1.583-1.17,2.451-1.644l-0.22-0.53c-0.936,0.507-1.817,1.1-2.637,1.768
		L6.653,4.358z"/>
	<path fill="#FFFFFF" d="M2.589,9.229c0.474-0.868,1.025-1.688,1.644-2.45L3.827,6.374C3.158,7.192,2.565,8.074,2.059,9.01
		L2.589,9.229z"/>
	<path fill="#FFFFFF" d="M24.646,2.714c0.868,0.474,1.688,1.026,2.451,1.644l0.405-0.406c-0.819-0.668-1.701-1.261-2.637-1.768
		L24.646,2.714z"/>
	<path fill="#FFFFFF" d="M33.005,12.172l-0.53,0.22c0.276,0.933,0.472,1.901,0.576,2.896h0.574
		C33.516,14.217,33.306,13.176,33.005,12.172z"/>
	<path fill="#FFFFFF" d="M29.519,6.779c0.618,0.763,1.169,1.583,1.643,2.45l0.53-0.22c-0.506-0.936-1.1-1.817-1.769-2.636
		L29.519,6.779z"/>
	<path fill="#FFFFFF" d="M21.483,32.6c-0.934,0.277-1.901,0.472-2.896,0.577v0.573c1.07-0.108,2.112-0.319,3.114-0.62L21.483,32.6z"
		/>
	<path fill="#FFFFFF" d="M31.161,24.771c-0.474,0.869-1.024,1.688-1.643,2.452l0.404,0.404c0.669-0.818,1.262-1.7,1.769-2.636
		L31.161,24.771z"/>
	<path fill="#FFFFFF" d="M27.097,29.644c-0.764,0.618-1.583,1.169-2.451,1.643l0.22,0.53c0.936-0.506,1.817-1.1,2.637-1.768
		L27.097,29.644z"/>
	<path fill="#FFFFFF" d="M33.051,18.713c-0.104,0.994-0.3,1.963-0.576,2.896l0.53,0.22c0.301-1.003,0.511-2.044,0.62-3.115H33.051z"
		/>
	<path fill="#FFFFFF" d="M15.162,33.177c-0.994-0.105-1.962-0.3-2.896-0.577l-0.219,0.53c1.002,0.302,2.043,0.512,3.114,0.62V33.177
		z"/>
	<path fill="#FFFFFF" d="M1.275,21.608c-0.276-0.933-0.472-1.901-0.576-2.896H0.125c0.109,1.071,0.319,2.112,0.62,3.115
		L1.275,21.608z"/>
	<path fill="#FFFFFF" d="M4.231,27.223c-0.618-0.764-1.169-1.583-1.643-2.452l-0.53,0.221c0.507,0.936,1.1,1.817,1.769,2.636
		L4.231,27.223z"/>
	<path fill="#FFFFFF" d="M9.104,31.286c-0.868-0.474-1.688-1.024-2.451-1.643l-0.405,0.405c0.818,0.668,1.701,1.262,2.637,1.768
		L9.104,31.286z"/>
</g>
</svg>
