<?xml version="1.0" encoding="utf-8"?>
<!-- Generator: Adobe Illustrator 16.0.0, SVG Export Plug-In . SVG Version: 6.00 Build 0)  -->
<!DOCTYPE svg PUBLIC "-//W3C//DTD SVG 1.1//EN" "http://www.w3.org/Graphics/SVG/1.1/DTD/svg11.dtd">
<svg version="1.1" id="图层_1" xmlns="http://www.w3.org/2000/svg" xmlns:xlink="http://www.w3.org/1999/xlink" x="0px" y="0px"
	 width="34px" height="34px" viewBox="0 0 34 34" enable-background="new 0 0 34 34" xml:space="preserve">
<g>
	<g>
		<path fill="#FFFFFF" d="M14.166,24.31c0,0.188-0.152,0.341-0.34,0.341h-0.793c-0.188,0-0.34-0.153-0.34-0.341V9.917
			c0-0.187,0.152-0.34,0.34-0.34h0.793c0.188,0,0.34,0.153,0.34,0.34V24.31z"/>
	</g>
	<g>
		<path fill="#FFFFFF" d="M21.307,24.31c0,0.188-0.153,0.341-0.34,0.341h-0.794c-0.187,0-0.34-0.153-0.34-0.341V9.917
			c0-0.187,0.153-0.34,0.34-0.34h0.794c0.187,0,0.34,0.153,0.34,0.34V24.31z"/>
	</g>
</g>
</svg>
